REM DIRINDEX 1\6,1\2\7,1\2\8,1\2\9,1\3\10,1\3\11,1\4\12,1\4\13,1\4\14,1\5\15,1\5\16,1\5\17
REM DIRNAME folder01,folder02,folder03,folder04,folder05,folder06,folder07,folder08,folder09,folder10,folder11,folder12,folder13,folder14,folder15,folder16,folder17
TITLE ""
FILE "3Q_j_1213-1228.mp3" MP3
  TRACK 01 AUDIO
    TITLE "12:cjc041_0939"
    INDEX 01 00:00:00
  TRACK 02 AUDIO
    TITLE "0:"
    INDEX 01 00:01:15
  TRACK 03 AUDIO
    TITLE "13:cjc041_0940"
    INDEX 01 00:01:66
  TRACK 04 AUDIO
    TITLE "0:"
    INDEX 01 00:02:71
  TRACK 05 AUDIO
    TITLE "14:cjc041_0941"
    INDEX 01 00:03:45
  TRACK 06 AUDIO
    TITLE "0:"
    INDEX 01 00:05:48
  TRACK 07 AUDIO
    TITLE "12:cjc041_0942"
    INDEX 01 00:06:24
  TRACK 08 AUDIO
    TITLE "0:"
    INDEX 01 00:07:52
  TRACK 09 AUDIO
    TITLE "13:cjc041_0943"
    INDEX 01 00:08:23
  TRACK 10 AUDIO
    TITLE "0:"
    INDEX 01 00:11:27
  TRACK 11 AUDIO
    TITLE "14:cjc041_0944"
    INDEX 01 00:12:07
  TRACK 12 AUDIO
    TITLE "0:"
    INDEX 01 00:18:15
  TRACK 13 AUDIO
    TITLE "12:cjc041_0945"
    INDEX 01 00:18:72
  TRACK 14 AUDIO
    TITLE "0:"
    INDEX 01 00:20:28
  TRACK 15 AUDIO
    TITLE "13:cjc041_0946"
    INDEX 01 00:21:06
  TRACK 16 AUDIO
    TITLE "0:"
    INDEX 01 00:23:40
  TRACK 17 AUDIO
    TITLE "14:cjc041_0947"
    INDEX 01 00:24:22
  TRACK 18 AUDIO
    TITLE "0:"
    INDEX 01 00:30:01
  TRACK 19 AUDIO
    TITLE "12:cjc041_0948"
    INDEX 01 00:30:57
  TRACK 20 AUDIO
    TITLE "0:"
    INDEX 01 00:32:11
  TRACK 21 AUDIO
    TITLE "13:cjc041_0949"
    INDEX 01 00:32:68
  TRACK 22 AUDIO
    TITLE "0:"
    INDEX 01 00:35:21
  TRACK 23 AUDIO
    TITLE "14:cjc041_0950"
    INDEX 01 00:36:03
  TRACK 24 AUDIO
    TITLE "0:"
    INDEX 01 00:39:29
  TRACK 25 AUDIO
    TITLE "12:cjc041_0951"
    INDEX 01 00:40:05
  TRACK 26 AUDIO
    TITLE "0:"
    INDEX 01 00:41:45
  TRACK 27 AUDIO
    TITLE "13:cjc041_0952"
    INDEX 01 00:42:18
  TRACK 28 AUDIO
    TITLE "0:"
    INDEX 01 00:43:40
  TRACK 29 AUDIO
    TITLE "14:cjc041_0953"
    INDEX 01 00:44:26
  TRACK 30 AUDIO
    TITLE "0:"
    INDEX 01 00:48:63
  TRACK 31 AUDIO
    TITLE "12:cjc041_0954"
    INDEX 01 00:49:39
  TRACK 32 AUDIO
    TITLE "0:"
    INDEX 01 00:51:15
  TRACK 33 AUDIO
    TITLE "13:cjc041_0955"
    INDEX 01 00:51:65
  TRACK 34 AUDIO
    TITLE "0:"
    INDEX 01 00:54:09
  TRACK 35 AUDIO
    TITLE "14:cjc041_0956"
    INDEX 01 00:54:60
  TRACK 36 AUDIO
    TITLE "0:"
    INDEX 01 00:58:52
  TRACK 37 AUDIO
    TITLE "12:cjc041_0957"
    INDEX 01 00:59:36
  TRACK 38 AUDIO
    TITLE "0:"
    INDEX 01 01:00:72
  TRACK 39 AUDIO
    TITLE "13:cjc041_0958"
    INDEX 01 01:01:52
  TRACK 40 AUDIO
    TITLE "0:"
    INDEX 01 01:03:67
  TRACK 41 AUDIO
    TITLE "14:cjc041_0959"
    INDEX 01 01:04:48
  TRACK 42 AUDIO
    TITLE "0:"
    INDEX 01 01:08:05
  TRACK 43 AUDIO
    TITLE "12:cjc041_0960"
    INDEX 01 01:08:60
  TRACK 44 AUDIO
    TITLE "0:"
    INDEX 01 01:10:49
  TRACK 45 AUDIO
    TITLE "13:cjc041_0961"
    INDEX 01 01:11:25
  TRACK 46 AUDIO
    TITLE "0:"
    INDEX 01 01:12:60
  TRACK 47 AUDIO
    TITLE "14:cjc041_0962"
    INDEX 01 01:13:42
  TRACK 48 AUDIO
    TITLE "0:"
    INDEX 01 01:16:56
  TRACK 49 AUDIO
    TITLE "12:cjc041_0963"
    INDEX 01 01:17:33
  TRACK 50 AUDIO
    TITLE "0:"
    INDEX 01 01:18:66
  TRACK 51 AUDIO
    TITLE "13:cjc041_0964"
    INDEX 01 01:19:46
  TRACK 52 AUDIO
    TITLE "0:"
    INDEX 01 01:20:69
  TRACK 53 AUDIO
    TITLE "14:cjc041_0965"
    INDEX 01 01:21:47
  TRACK 54 AUDIO
    TITLE "0:"
    INDEX 01 01:26:42
  TRACK 55 AUDIO
    TITLE "12:cjc041_0966"
    INDEX 01 01:27:16
  TRACK 56 AUDIO
    TITLE "0:"
    INDEX 01 01:28:61
  TRACK 57 AUDIO
    TITLE "13:cjc041_0967"
    INDEX 01 01:29:35
  TRACK 58 AUDIO
    TITLE "0:"
    INDEX 01 01:31:30
  TRACK 59 AUDIO
    TITLE "14:cjc041_0968"
    INDEX 01 01:32:08
  TRACK 60 AUDIO
    TITLE "0:"
    INDEX 01 01:35:59
  TRACK 61 AUDIO
    TITLE "12:cjc041_0969"
    INDEX 01 01:36:39
  TRACK 62 AUDIO
    TITLE "0:"
    INDEX 01 01:38:71
  TRACK 63 AUDIO
    TITLE "13:cjc041_0970"
    INDEX 01 01:39:53
  TRACK 64 AUDIO
    TITLE "0:"
    INDEX 01 01:41:71
  TRACK 65 AUDIO
    TITLE "14:cjc041_0971"
    INDEX 01 01:42:47
  TRACK 66 AUDIO
    TITLE "0:"
    INDEX 01 01:46:53
  TRACK 67 AUDIO
    TITLE "12:cjc041_0972"
    INDEX 01 01:47:33
  TRACK 68 AUDIO
    TITLE "0:"
    INDEX 01 01:49:33
  TRACK 69 AUDIO
    TITLE "13:cjc041_0973"
    INDEX 01 01:50:09
  TRACK 70 AUDIO
    TITLE "0:"
    INDEX 01 01:52:46
  TRACK 71 AUDIO
    TITLE "14:cjc041_0974"
    INDEX 01 01:53:27
  TRACK 72 AUDIO
    TITLE "0:"
    INDEX 01 01:57:17
  TRACK 73 AUDIO
    TITLE "12:cjc041_0975"
    INDEX 01 01:57:66
  TRACK 74 AUDIO
    TITLE "0:"
    INDEX 01 02:00:00
  TRACK 75 AUDIO
    TITLE "13:cjc041_0976"
    INDEX 01 02:00:53
  TRACK 76 AUDIO
    TITLE "0:"
    INDEX 01 02:02:32
  TRACK 77 AUDIO
    TITLE "14:cjc041_0977"
    INDEX 01 02:03:10
  TRACK 78 AUDIO
    TITLE "0:"
    INDEX 01 02:06:03
  TRACK 79 AUDIO
    TITLE "12:cjc041_0978"
    INDEX 01 02:06:55
  TRACK 80 AUDIO
    TITLE "0:"
    INDEX 01 02:08:21
  TRACK 81 AUDIO
    TITLE "13:cjc041_0979"
    INDEX 01 02:08:72
  TRACK 82 AUDIO
    TITLE "0:"
    INDEX 01 02:10:18
  TRACK 83 AUDIO
    TITLE "14:cjc041_0980"
    INDEX 01 02:11:02
  TRACK 84 AUDIO
    TITLE "0:"
    INDEX 01 02:15:00
  TRACK 85 AUDIO
    TITLE "12:cjc041_0981"
    INDEX 01 02:15:52
  TRACK 86 AUDIO
    TITLE "0:"
    INDEX 01 02:17:24
  TRACK 87 AUDIO
    TITLE "13:cjc041_0982"
    INDEX 01 02:18:06
  TRACK 88 AUDIO
    TITLE "0:"
    INDEX 01 02:19:23
  TRACK 89 AUDIO
    TITLE "14:cjc041_0983"
    INDEX 01 02:20:05
  TRACK 90 AUDIO
    TITLE "0:"
    INDEX 01 02:23:13
  TRACK 91 AUDIO
    TITLE "12:cjc041_0984"
    INDEX 01 02:23:64
  TRACK 92 AUDIO
    TITLE "0:"
    INDEX 01 02:25:37
  TRACK 93 AUDIO
    TITLE "13:cjc041_0985"
    INDEX 01 02:26:13
  TRACK 94 AUDIO
    TITLE "0:"
    INDEX 01 02:27:36
  TRACK 95 AUDIO
    TITLE "14:cjc041_0986"
    INDEX 01 02:28:20
  TRACK 96 AUDIO
    TITLE "0:"
    INDEX 01 02:31:57
